<svg id="Layer_1" data-name="Layer 1" xmlns="http://www.w3.org/2000/svg" width="86.6838" height="40" viewBox="0 0 86.6838 40">
    <title>DiscoverYOU</title>
    <path d="M1.6581,1.1871H3.4666A4.6894,4.6894,0,0,1,6.2649,1.98a3.266,3.266,0,0,1,1.287,2.7571A3.3052,3.3052,0,0,1,6.27,7.5091a4.7154,4.7154,0,0,1-2.8032.7924H1.6581ZM3.3934,2.7979V6.6907h.1049A2.8822,2.8822,0,0,0,5.15,6.253a1.8017,1.8017,0,0,0,.6614-1.5164A1.7692,1.7692,0,0,0,5.15,3.2405a2.846,2.846,0,0,0-1.6512-.4426Z" transform="translate(-1.6581 -1)" />
    <path d="M11.6313,1.1871V8.3015H9.896V1.1871Z" transform="translate(-1.6581 -1)" />
    <path d="M26.8819,3.5586A2.1754,2.1754,0,0,0,25.1832,2.61a1.9543,1.9543,0,0,0-1.59.7509,2.1156,2.1156,0,0,0-.4848,1.3806,2.06,2.06,0,0,0,.6622,1.5693,1.9981,1.9981,0,0,0,1.4229.5678,2.189,2.189,0,0,0,1.72-.964L28.1591,7.056a3.9788,3.9788,0,0,1-2.945,1.4326,3.8606,3.8606,0,0,1-1.98-.5312,3.6867,3.6867,0,0,1-1.3553-5.0765,3.7617,3.7617,0,0,1,1.4123-1.3863A3.9243,3.9243,0,0,1,25.23,1a3.468,3.468,0,0,1,2.0167.6354,5.4671,5.4671,0,0,1,.88.7818Z" transform="translate(-1.6581 -1)" />
    <path d="M36.6158,2.24a3.5611,3.5611,0,0,1,1.0007,2.5074,3.5622,3.5622,0,0,1-.5207,1.8711,3.7726,3.7726,0,0,1-1.36,1.3391,3.8324,3.8324,0,0,1-1.9753.5312,3.75,3.75,0,0,1-1.9183-.5312,3.7322,3.7322,0,0,1-1.8809-3.268,3.3781,3.3781,0,0,1,.5207-1.8134A3.9572,3.9572,0,0,1,31.9,1.4946,3.8111,3.8111,0,0,1,33.7864,1,3.7,3.7,0,0,1,36.6158,2.24Zm-4.4191,1.126a2.1548,2.1548,0,0,0-.4954,1.418,2.1152,2.1152,0,0,0,2.0851,2.0948A2,2,0,0,0,34.844,6.576a2.0923,2.0923,0,0,0,1.0323-1.8288A2.0773,2.0773,0,0,0,35.23,3.199,2.0152,2.0152,0,0,0,33.77,2.61,1.9557,1.9557,0,0,0,32.1967,3.3658Z" transform="translate(-1.6581 -1)" />
    <path d="M40.9854,1.1871,42.5335,5.878l1.5482-4.6909h1.8345L43.513,8.3015H41.5483L39.146,1.1871Z" transform="translate(-1.6581 -1)" />
    <path d="M52.3147,2.7768h-2.57V3.9027h2.2828v1.6H49.7447V6.6907h2.6636V8.3015H48.0249V1.1871h4.29Z" transform="translate(-1.6581 -1)" />
    <path d="M57.0251,5.92a.4657.4657,0,0,0-.0675.0049c-.0936.0056-.1823.0056-.266.0056h.01V8.3015H54.966V1.1871h2.0372a3.7806,3.7806,0,0,1,1.4489.2246,2.2251,2.2251,0,0,1,1.1675,1.11A2.4135,2.4135,0,0,1,59.8644,3.59a2.5282,2.5282,0,0,1-.2674,1.0824,2.0942,2.0942,0,0,1-1.0153.89l1.83,2.7394H58.3487ZM56.6916,4.351h.4a1.6245,1.6245,0,0,0,.8954-.1943.6461.6461,0,0,0,.285-.5672c0-.5833-.4035-.8176-1.18-.8176h-.4Z" transform="translate(-1.6581 -1)" />
    <path d="M17.5009,3.986l-.6353-.2344c-.4332-.1613-.6344-.2785-.6537-.5847a.5027.5027,0,0,1,.2693-.4754.9678.9678,0,0,1,.8837.065,1.5853,1.5853,0,0,1,.48.62l1.5622-.42a1.6359,1.6359,0,0,0-.1487-.4726,2.5986,2.5986,0,0,0-.2323-.4062l-.0161-.024-.002.0021-.0148-.0167a2.7161,2.7161,0,0,0-.3429-.3871,2.4772,2.4772,0,0,0-.3873-.3075A2.4717,2.4717,0,0,0,16.9335,1a2.5943,2.5943,0,0,0-1.5746.49,2.0068,2.0068,0,0,0-.87,1.7041q0,1.3756,1.6775,2.0114l.6041.2294c.6254.2343.8007.4082.8345.6823a.6555.6555,0,0,1-.1786.568.7928.7928,0,0,1-.6443.1928.7326.7326,0,0,1-.6836-.4115,2.9208,2.9208,0,0,1-.1845-.5925l-1.7064.4669a3.939,3.939,0,0,0,.3128.9021,2.1982,2.1982,0,0,0,.551.6616,2.5707,2.5707,0,0,0,1.6891.5837,2.71,2.71,0,0,0,1.2826-.302,2.5,2.5,0,0,0,.9589-.8807,2.2946,2.2946,0,0,0,.3435-1.2141,1.8287,1.8287,0,0,0-.5011-1.2925A3.4115,3.4115,0,0,0,17.5009,3.986Z" transform="translate(-1.6581 -1)" />
    <path d="M11.6936,28.0633,1.6581,10.6426H9.7868l5.5241,9.88,5.5241-9.88h8.106L18.91,28.0633V40.22H11.6936Z" transform="translate(-1.6581 -1)" />
    <path d="M56.7552,15.0217a15.0985,15.0985,0,0,1,1.9935,18.2008A15.65,15.65,0,0,1,53.0923,38.79,15.9254,15.9254,0,0,1,44.8814,41a15.5876,15.5876,0,0,1-7.9736-2.21,15.5215,15.5215,0,0,1-7.8232-13.5867,14.0493,14.0493,0,0,1,2.1668-7.54,16.4457,16.4457,0,0,1,5.8936-5.7408,15.8211,15.8211,0,0,1,7.8413-2.0595A15.3817,15.3817,0,0,1,56.7552,15.0217Zm-18.3741,4.68a8.9453,8.9453,0,0,0-2.0618,5.8936,8.7926,8.7926,0,0,0,8.667,8.7081,8.3356,8.3356,0,0,0,4.402-1.2545,8.8235,8.8235,0,0,0,3.2068-3.2934,8.9509,8.9509,0,0,0,1.0811-4.313,8.6392,8.6392,0,0,0-2.6868-6.4341,8.3671,8.3671,0,0,0-6.0669-2.45A8.1307,8.1307,0,0,0,38.3811,19.7019Z" transform="translate(-1.6581 -1)" />
    <path d="M72.1371,10.6426v18.05a8.1043,8.1043,0,0,0,.5885,3.8363,5.0737,5.0737,0,0,0,7.7091,0,8.1046,8.1046,0,0,0,.5884-3.8363v-18.05H88.235V29.45c0,3.2068-.6478,5.3325-2.185,7.26a11.3057,11.3057,0,0,1-4.3563,3.25A12.8475,12.8475,0,0,1,76.58,41a12.343,12.343,0,0,1-7.0431-2.1029C66.33,36.7532,64.9253,33.893,64.9253,29.45V10.6426Z" transform="translate(-1.6581 -1)" />
    <rect x="63.1602" y="5.1365" width="7.319" height="2.3339" />
    <rect x="63.1602" y="2.1495" width="7.319" height="1.5947" />
    <rect x="63.1602" y="0.2309" width="7.319" height="0.7974" />
    <rect x="79.365" y="5.1365" width="7.3188" height="2.3339" />
    <rect x="79.365" y="2.1495" width="7.3188" height="1.5947" />
    <rect x="79.365" y="0.2309" width="7.3188" height="0.7974" />
</svg>