<svg id="Layer_1" data-name="Layer 1" xmlns="http://www.w3.org/2000/svg" width="22.8965" height="22.8953" viewBox="0 0 22.8965 22.8953">
    <defs>
        <style>
            .cls-1 {
                fill: #999;
            }
        </style>
    </defs>
    <title>icon instagram 2</title>
    <path class="cls-1" d="M18.58,4.605a1.3647,1.3647,0,1,0,1.3665,1.3628A1.36,1.36,0,0,0,18.58,4.605Z" transform="translate(-0.5518 -0.5524)" />
    <path class="cls-1" d="M12.0012,6.2051a5.847,5.847,0,1,0,5.8434,5.847A5.84,5.84,0,0,0,12.0012,6.2051Zm0,9.6443a3.7973,3.7973,0,1,1,3.7973-3.7973A3.8061,3.8061,0,0,1,12.0012,15.8494Z" transform="translate(-0.5518 -0.5524)" />
    <path class="cls-1" d="M23.3788,7.6112a7.1942,7.1942,0,0,0-1.97-5.02,7.19,7.19,0,0,0-5.0129-1.97C15.2447.556,14.0906.5524,13.1015.5524H10.9009c-.9924,0-2.1431.0036-3.2866.0682A7.207,7.207,0,0,0,2.5908,2.5911,7.1834,7.1834,0,0,0,.6237,7.604C.5482,8.9056.5518,10.2075.5518,11.4661v1.0678c0,1.2586-.0036,2.5605.0682,3.8512a7.2111,7.2111,0,0,0,1.9708,5.0235,7.1962,7.1962,0,0,0,5.0163,1.9671c1.1507.0649,2.3014.0719,3.2938.0719h2.2006c.9891,0,2.1432-.007,3.2867-.0719a7.1878,7.1878,0,0,0,5.02-1.9671,7.1909,7.1909,0,0,0,1.97-5.0163c.0718-1.2979.0718-2.6.0682-3.8584V11.4661C23.4506,10.2075,23.4506,8.9056,23.3788,7.6112Zm-1.7871,4.3906v.5321c0,1.2875.0034,2.51-.0684,3.7614a5.3,5.3,0,0,1-1.4275,3.7973A5.2907,5.2907,0,0,1,16.2876,21.52c-1.104.0646-2.2222.072-3.1861.072l-1.1-.0037-1.1.0037c-.9637,0-2.0857-.0074-3.1968-.072a5.2691,5.2691,0,0,1-3.7973-1.4276,5.3058,5.3058,0,0,1-1.4311-3.8045c-.0685-1.2441-.0648-2.4667-.0648-3.7542V11.4624c0-1.291-.0037-2.5064.0648-3.7614A5.3,5.3,0,0,1,3.9068,3.9037,5.29,5.29,0,0,1,7.7113,2.4761c1.1039-.0646,2.2259-.0683,3.19-.0683l1.1.0037,1.1-.0037c.9639,0,2.0821.0037,3.197.0683a5.2976,5.2976,0,0,1,3.7973,1.4276,5.3054,5.3054,0,0,1,1.4275,3.8044c.0718,1.2479.0684,2.4633.0684,3.7543Z" transform="translate(-0.5518 -0.5524)" />
</svg>