<svg id="Layer_1" data-name="Layer 1" xmlns="http://www.w3.org/2000/svg" width="40" height="40" viewBox="0 0 40 40">
    <defs>
        <style>
            .cls-1 {
                fill: gray;
            }
        </style>
    </defs>
    <title>icon facebook</title>
    <path class="cls-1" d="M39.8746,12.3365a12.5549,12.5549,0,0,0-3.4422-8.7686A12.5552,12.5552,0,0,0,27.676.1257C25.6659.0126,23.65,0,21.9221,0H18.0779c-1.7273,0-3.7435.0126-5.741.1257A12.5755,12.5755,0,0,0,3.5618,3.5679,12.5655,12.5655,0,0,0,.1258,12.324C-.0061,14.5981,0,16.8719,0,19.064L.0065,20,0,20.936c0,2.1986-.0061,4.4723.1258,6.7275a12.5975,12.5975,0,0,0,3.436,8.775,12.5876,12.5876,0,0,0,8.7626,3.4358c2.01.12,4.0262.1257,5.7535.1257L20,39.9939,21.9221,40c1.7277,0,3.7438-.0061,5.7413-.1257a12.5826,12.5826,0,0,0,8.769-3.4358,12.5717,12.5717,0,0,0,3.4422-8.7625C40,25.4083,40,23.1346,40,20.936V19.064C40,16.8719,40,14.5981,39.8746,12.3365ZM36.7527,20v.9358c0,2.2549,0,4.3781-.1193,6.57-.1508,3.053-.8921,5.0376-2.4938,6.6331-1.6019,1.602-3.5868,2.3493-6.6457,2.4938-1.7988.1055-3.6162.1173-5.22.1185V26.093h4.4723l.6847-5.2135h-5.157V17.5566c0-1.5013.402-2.5439,2.569-2.5439h2.764V10.3706a33.199,33.199,0,0,0-4.0137-.2136c-3.9825,0-6.7149,2.4311-6.7149,6.8844V20.88H12.3935V26.093h4.4848V36.75c-1.3836-.0063-2.888-.03-4.3845-.1168-3.0466-.1445-5.0376-.8918-6.64-2.4938-1.5951-1.5955-2.3429-3.58-2.4873-6.6456-.1257-2.18-.1193-4.3028-.1193-6.5577V19.064c0-2.2549-.0064-4.3781.1193-6.57.1444-3.0526.8922-5.0315,2.4873-6.6331,1.602-1.602,3.593-2.3429,6.6522-2.4938,1.9283-.1068,3.8882-.1193,5.5715-.1193h3.8442c1.6836,0,3.6435.0125,5.5844.1193,3.0463.1509,5.0312.8918,6.6331,2.4938s2.343,3.5805,2.4938,6.6457c.1193,2.18.1193,4.3027.1193,6.5576Z" transform="translate(0)" />
</svg>