<svg id="Layer_1" data-name="Layer 1" xmlns="http://www.w3.org/2000/svg" width="15" height="25" viewBox="0 0 15 25">
    <defs>
        <style>
            .cls-1 {
                fill: #fff;
            }
        </style>
    </defs>
    <title>icon gio hang</title>
    <path class="cls-1" d="M14.01,6.7373,12.9164,4.9521c-.7764-1.2833-.667-1.2833-1.64-1.2833H10.693a3.3052,3.3052,0,0,0-6.5308,0H1.88a1,1,0,0,0-1,1V21.3442c0,.8257,3.2957,2.66,3.2957,2.66a.7505.7505,0,0,0,.4082.1211h8.7871a.75.75,0,0,0,.75-.75V7.1289A.7492.7492,0,0,0,14.01,6.7373ZM7.4272,1.875A2.32,2.32,0,0,1,9.68,3.6688H5.1751A2.32,2.32,0,0,1,7.4272,1.875Zm3.8493,2.8312v16.638H1.88V4.6688h9.397Zm-1.93,6.6572a.2679.2679,0,0,1,0,.3782L3.8357,17.2609a.2672.2672,0,0,1-.3776-.3782l5.5111-5.5193a.2669.2669,0,0,1,.3777,0M3.6578,15.4559a.2672.2672,0,0,1-.3777-.3781l4.7186-4.7256a.2672.2672,0,0,1,.3775.3782L3.6578,15.4559m-.31-1.63A.2673.2673,0,0,1,3.159,13.37l.78-.7814-.6635-.6646a.2672.2672,0,1,1,.3777-.3781l.6634.6644.6124-.6135L4.18,10.8462a.2673.2673,0,0,1,.3776-.3783l.75.7509.8349-.8362a.2672.2672,0,1,1,.3776.3781L3.5367,13.7481a.2663.2663,0,0,1-.1889.0782M6.0523,9.511a.2676.2676,0,0,1,0-.3783L7.7,7.4823a.2672.2672,0,0,1,.3776.3782L6.43,9.511a.2668.2668,0,0,1-.3776,0m3.3531,3.7376a.2677.2677,0,0,1,0,.3782l-4.7531,4.76a.2672.2672,0,0,1-.3777-.3781l4.7531-4.76a.2667.2667,0,0,1,.3777,0m-.0256,2.02a.2677.2677,0,0,1,0,.3782l-.6947.6957.692.693a.2672.2672,0,1,1-.3777.3781l-.6919-.6929-.5928.5937.6615.6625a.2672.2672,0,1,1-.3776.3782l-.6616-.6625-.78.781a.2672.2672,0,0,1-.3776-.3781l.9247-.9262a.26.26,0,0,1,.0383-.05.2638.2638,0,0,1,.05-.0383l.8826-.8839a.2457.2457,0,0,1,.0878-.088l.84-.8409a.2669.2669,0,0,1,.3777,0M4.7138,7.9261a.2672.2672,0,1,1,.3777-.3781l.8614.8628a.2672.2672,0,1,1-.3775.3783Zm1.3855,0a.2672.2672,0,0,1,.3776-.3782l.177.1772a.2672.2672,0,1,1-.3777.3781Z" />
</svg>