<svg id="Layer_1" data-name="Layer 1" xmlns="http://www.w3.org/2000/svg" width="39.9959" height="39.9937" viewBox="0 0 39.9959 39.9937">
    <defs>
        <style>
            .cls-1 {
                fill: gray;
            }
        </style>
    </defs>
    <title>icon instagram</title>
    <path class="cls-1" d="M31.4946,7.0823a2.3838,2.3838,0,1,0,2.387,2.3806A2.3752,2.3752,0,0,0,31.4946,7.0823Z" transform="translate(-0.0021 -0.0031)" />
    <path class="cls-1" d="M20.0021,9.8773A10.2137,10.2137,0,1,0,30.2094,20.0911,10.2021,10.2021,0,0,0,20.0021,9.8773Zm0,16.8469a6.6332,6.6332,0,1,1,6.6332-6.6331A6.6485,6.6485,0,0,1,20.0021,26.7242Z" transform="translate(-0.0021 -0.0031)" />
    <path class="cls-1" d="M39.8767,12.3335a12.5663,12.5663,0,0,0-3.4422-8.769A12.5587,12.5587,0,0,0,27.678.1223C25.668.0094,23.6518.0031,21.924.0031H18.08c-1.7335,0-3.7435.0063-5.741.1192A12.5886,12.5886,0,0,0,3.5639,3.5645,12.548,12.548,0,0,0,.1278,12.321c-.132,2.2737-.1257,4.5479-.1257,6.7464v1.8652c0,2.1985-.0063,4.4727.1192,6.7274a12.5971,12.5971,0,0,0,3.4426,8.7751,12.57,12.57,0,0,0,8.7625,3.4361c2.01.1133,4.02.1257,5.7536.1257h3.844c1.7278,0,3.744-.0124,5.7414-.1257a12.5557,12.5557,0,0,0,8.7691-3.4361,12.5612,12.5612,0,0,0,3.4422-8.7626c.1254-2.2672.1254-4.5414.1191-6.74V19.0674C40.0021,16.8689,40.0021,14.5947,39.8767,12.3335Zm-3.1219,7.67v.93c0,2.2491.0061,4.3846-.1193,6.57-.151,3.0528-.8983,5.0377-2.4937,6.6332C32.54,35.7379,30.5549,36.4856,27.49,36.63c-1.9284.1129-3.8818.1258-5.5656.1258l-1.9219-.0064-1.9221.0064c-1.6834,0-3.6432-.0129-5.5842-.1258-3.0527-.1444-5.0376-.8921-6.6331-2.4937-1.6016-1.5955-2.343-3.58-2.5-6.6457-.12-2.1734-.1133-4.3089-.1133-6.558V19.0609c0-2.2552-.0065-4.3781.1133-6.5705.1568-3.0526.8982-5.0377,2.5-6.6332,1.5955-1.6015,3.58-2.3428,6.6457-2.4937,1.9284-.1129,3.8882-.1193,5.5716-.1193l1.9221.0064,1.9219-.0064c1.6838,0,3.6372.0064,5.5846.1193,3.0463.1509,5.0312.8922,6.6332,2.4937,1.5954,1.5955,2.3427,3.5806,2.4937,6.6457.1254,2.18.1193,4.3028.1193,6.558Z" transform="translate(-0.0021 -0.0031)" />
</svg>