<svg id="Layer_1" data-name="Layer 1" xmlns="http://www.w3.org/2000/svg" width="15" height="25" viewBox="0 0 15 25">
    <defs>
        <style>
            .cls-1 {
                fill: #fff;
            }
        </style>
    </defs>
    <title>icon dang nhap</title>
    <path class="cls-1" d="M13.5484,18.4054a.2944.2944,0,0,1-.0241.13,3.7507,3.7507,0,0,1-.97,1.224,2.067,2.067,0,0,1-1.0192.4632.3131.3131,0,0,0-.069.0272h-7.81c-.1246-.0358-.2517-.0649-.3734-.1087a2.6339,2.6339,0,0,1-1.1345-.83c-.24-.29-.4446-.61-.6576-.9216a.35.35,0,0,1-.0383-.1864A5.5641,5.5641,0,0,1,2.817,14.542a5.8784,5.8784,0,0,1,3.9282-2.1309,6.0071,6.0071,0,0,1,6.5422,4.1762A5.9207,5.9207,0,0,1,13.5484,18.4054Zm-5.41-6.6138A3.5386,3.5386,0,0,0,8.5547,4.91c-.265-.074-.5414-.1074-.8125-.16H7.3486c-.1632.0267-.3278.0466-.4893.0811a3.539,3.539,0,0,0,1.2788,6.9605Z" />
</svg>