<svg id="Layer_1" data-name="Layer 1" xmlns="http://www.w3.org/2000/svg" width="21.3333" height="15.995" viewBox="0 0 21.3333 15.995">
    <defs>
        <style>
            .cls-1 {
                fill: #999;
            }
        </style>
    </defs>
    <title>icon youtube 2</title>
    <path class="cls-1" d="M1.3333,14.1572V9.8025c.031-.261.0566-.5227.0939-.7829a23.8411,23.8411,0,0,1,.4159-2.7164A2.6424,2.6424,0,0,1,4.52,4.2c1.5736-.0819,3.1489-.2094,4.7226-.1969q5.2491.0417,10.4967.2175A2.5174,2.5174,0,0,1,22.1944,6.1a7.0891,7.0891,0,0,1,.3809,1.8738q.1056,3.4468.0888,6.8969a8.4743,8.4743,0,0,1-.4918,3.0809,2.5967,2.5967,0,0,1-2.1213,1.7372,13.3514,13.3514,0,0,1-1.3719.1376c-3.8751.2095-7.7523.2194-11.6293.0719-.9739-.0371-1.9492-.1116-2.9164-.23a2.4774,2.4774,0,0,1-2.2317-1.8107,13.35,13.35,0,0,1-.3854-1.8752C1.4248,15.3781,1.392,14.7657,1.3333,14.1572Zm7.45,2.5786L16.71,11.98,8.7834,7.2241Z" transform="translate(-1.3333 -4.0025)" />
</svg>