<svg id="Layer_1" data-name="Layer 1" xmlns="http://www.w3.org/2000/svg" width="50" height="86.9252" viewBox="0 0 50 86.9252">
    <defs>
        <style>
            .cls-1 {
                fill: #f15e2c;
            }
        </style>
    </defs>
    <title>Logo Ananas_Header</title>
    <g id="Logo">
        <path class="cls-1" d="M49.9324,30.91a2.0868,2.0868,0,0,0-2.95,0L3.9463,73.9473a2.0853,2.0853,0,1,0,2.9491,2.9491l43.037-43.0371a2.086,2.086,0,0,0,0-2.9491" transform="translate(-1 -0.0374)" />
        <path class="cls-1" d="M5.5059,62.8221,42.3526,25.9746a2.085,2.085,0,0,0-2.9485-2.9488L2.5562,59.8736a2.0853,2.0853,0,0,0,2.95,2.9485" transform="translate(-1 -0.0374)" />
        <path class="cls-1" d="M3.0851,50.1153a2.0805,2.0805,0,0,0,1.4748-.61L27.8528,26.2111a2.085,2.085,0,0,0-2.9486-2.9486l-6.52,6.52L12.5307,23.928a2.0852,2.0852,0,0,0-2.9485,2.9493l5.8531,5.8534-4.7828,4.7836-5.18-5.1806a2.0849,2.0849,0,1,0-2.9491,2.948l5.1808,5.1819-6.093,6.0931a2.0845,2.0845,0,0,0,1.4742,3.5586" transform="translate(-1 -0.0374)" />
        <path class="cls-1" d="M24.2048,16.4663a2.0858,2.0858,0,0,0,2.9485,0L40.022,3.5968A2.0852,2.0852,0,0,0,37.0735.6475L24.2048,13.5164a2.0852,2.0852,0,0,0,0,2.95" transform="translate(-1 -0.0374)" />
        <path class="cls-1" d="M50.3891,45.6105a2.0846,2.0846,0,0,0-2.9491,0L10.3223,82.7283a2.0853,2.0853,0,0,0,2.95,2.9485L50.3891,48.5591a2.0845,2.0845,0,0,0,0-2.9486" transform="translate(-1 -0.0374)" />
        <path class="cls-1" d="M50.19,61.3609a2.0859,2.0859,0,0,0-2.95,0L40.684,67.9177a1.9133,1.9133,0,0,0-.6853.6859l-6.8924,6.8923a1.9228,1.9228,0,0,0-.6858.6858L25.2,83.4032a2.0849,2.0849,0,1,0,2.9485,2.9485l6.0893-6.09,5.1662,5.1662a2.0853,2.0853,0,1,0,2.949-2.9491l-5.1661-5.1662,4.6291-4.6291,5.4035,5.4029a2.0851,2.0851,0,0,0,2.949-2.9485l-5.4034-5.404L50.19,64.31a2.0854,2.0854,0,0,0,0-2.9486" transform="translate(-1 -0.0374)" />
        <path class="cls-1" d="M20.48,10.837a2.0852,2.0852,0,1,0,2.9485-2.9494L16.7016,1.16a2.0852,2.0852,0,0,0-2.95,2.9483Z" transform="translate(-1 -0.0374)" />
        <path class="cls-1" d="M25.9533,5.49a2.0852,2.0852,0,1,0,2.949-2.9487L27.52,1.16a2.0849,2.0849,0,1,0-2.9485,2.9486Z" transform="translate(-1 -0.0374)" />
    </g>
</svg>