<svg id="Layer_1" data-name="Layer 1" xmlns="http://www.w3.org/2000/svg" width="340.4738" height="68.5" viewBox="0 0 340.4738 68.5">
    <defs>
        <style>
            .cls-1 {
                fill: gray;
            }
        </style>
    </defs>
    <title>Logo Ananas_Footer</title>
    <path class="cls-1" d="M123.9721,26.4263a19.4571,19.4571,0,0,0-14.2179-6.1,16.6572,16.6572,0,0,0-10.6371,3.9328v-2.42l-11.7468,0,.0005,33.9459L75.62,51.619,75.3681.7534l-18.5017,0L.7631,65.9517,13.341,69.25,31.6721,47.8,87.37,67.5457l.0008.0709,11.7465,0,0-22.8886c-.0006-5.2939.7049-8.7727,2.1166-10.537,1.7145-2.1174,4.2859-3.1765,7.663-3.1767a7.7266,7.7266,0,0,1,6.1008,2.47q2.2682,2.5709,2.269,10.2851l.0008,23.8467,11.7468,0,0-24.6029C129.0133,35.1481,127.5516,30.2073,123.9721,26.4263ZM64.079,47.5282,39.3635,38.7659l6.3851-7.5576L64.1544,9.3438l-.0757,28.5967Z" transform="translate(-0.7631 -0.75)" />
    <path class="cls-1" d="M169.2184,21.8381l-.0006,2.9238a19.9493,19.9493,0,0,0-12.301-4.4365,24.0988,24.0988,0,0,0-24.0481,24.3512,23.7411,23.7411,0,0,0,6.2018,16.4354,22.9938,22.9938,0,0,0,17.8466,8.0162,19.9471,19.9471,0,0,0,12.3013-4.4372l0,2.9243h11.7466l-.0006-45.7772Zm-2.5209,31.9127a11.3761,11.3761,0,0,1-9.5793,4.6889,11.7927,11.7927,0,0,1-8.671-3.5792c-2.47-2.47-3.68-5.8985-3.6812-10.1842a14.25,14.25,0,0,1,2.7225-9.0241,11.4471,11.4471,0,0,1,9.4278-4.6388,11.6229,11.6229,0,0,1,8.8228,3.5291c2.42,2.5209,3.6308,5.8988,3.63,10.0832A14.85,14.85,0,0,1,166.6975,53.7508Z" transform="translate(-0.7631 -0.75)" />
    <path class="cls-1" d="M226.3348,26.4252a19.4543,19.4543,0,0,0-14.2179-6.1A16.6559,16.6559,0,0,0,201.48,24.2575l-.0011-2.42-11.7468,0,.0008,45.7775,11.7465,0,0-22.8886c0-5.2937.707-8.7722,2.1179-10.537,1.7142-2.1172,4.2847-3.1765,7.663-3.1765a7.7256,7.7256,0,0,1,6.1006,2.4707q2.2681,2.571,2.2689,10.2848l0,23.8463,11.7468,0,0-24.6025C231.3763,35.1468,229.9142,30.206,226.3348,26.4252Z" transform="translate(-0.7631 -0.75)" />
    <path class="cls-1" d="M272.3866,21.8365l.0006,2.9243a19.9508,19.9508,0,0,0-12.3024-4.4367A24.0984,24.0984,0,0,0,236.037,44.6753a23.7462,23.7462,0,0,0,6.2015,16.4354,22.9974,22.9974,0,0,0,17.8468,8.0162,19.9543,19.9543,0,0,0,12.3024-4.437l0,2.9241,11.7468,0,0-45.7775Zm-2.52,31.9132a11.3779,11.3779,0,0,1-9.5793,4.6889,11.795,11.795,0,0,1-8.6721-3.58c-2.47-2.47-3.68-5.8982-3.68-10.1839a14.2505,14.2505,0,0,1,2.7227-9.0241,11.4432,11.4432,0,0,1,9.4276-4.6385,11.6216,11.6216,0,0,1,8.8228,3.5288c2.4194,2.5206,3.63,5.8985,3.6305,10.0832A14.8565,14.8565,0,0,1,269.8668,53.75Z" transform="translate(-0.7631 -0.75)" />
    <path class="cls-1" d="M316.5125,29.6834,310.37,27.3325c-3.9083-1.4748-6.2824-3.298-7.1871-5.4744H291.296c.8082,6.9065,5.5258,12.0554,14.2768,15.4069l5.9016,2.2554a27.7387,27.7387,0,0,1,6.6214,3.3583A6.66,6.66,0,0,1,320.8313,48.3a9.6506,9.6506,0,0,1-2.7835,6.8621,9.844,9.844,0,0,1-7.4366,3.0711c-5.3748,0-8.8773-3.1663-10.4617-9.5485-.1431-.5279-.3351-1.2954-.5755-2.3514l-11.3233,2.9757q.72,2.8788.864,3.598a20.9764,20.9764,0,0,0,6.7173,10.9884,21.3933,21.3933,0,0,0,14.5387,5.23,22.1767,22.1767,0,0,0,14.8759-5.23,19.5427,19.5427,0,0,0,7.3886-15.69,16.0906,16.0906,0,0,0-4.1746-11.1807Q324.5018,32.7064,316.5125,29.6834Z" transform="translate(-0.7631 -0.75)" />
    <path class="cls-1" d="M292.8968,11.5986l18.8387,0,0,.0076c.0438,0,.0795-.012.1223-.0126a9.7205,9.7205,0,0,1,7.0061,2.8787,33.6745,33.6745,0,0,1,3.5914,4.884l-.0034.0026.0042-.0013.0065.0094.031-.0188,10.5652-2.7759a30.2548,30.2548,0,0,0-1.2912-2.9862l.0065-.0036c-.0115-.023-.0237-.04-.0352-.0629-.02-.0406-.0375-.0925-.0574-.133l-.013.0081a28.379,28.379,0,0,0-1.431-2.56c-.0125-.0193-.0248-.0365-.0386-.0563-.4037-.628-.81-1.1767-1.2132-1.7056-.1565-.2092-.3072-.4064-.4562-.5954-.526-.6489-1.0291-1.21-1.51-1.6991A20.5454,20.5454,0,0,0,312.001.75c-.09,0-.1748.0188-.2658.02v-.02L87.3692.7531l0,10.8484Z" transform="translate(-0.7631 -0.75)" />
    <path class="cls-1" d="M338.7351,66.1326H337.92l-.8628-1.5494q-.1493.0088-.2537.0089h-.212v1.54h-.7225V62.0575h.9345c.0676,0,.1243.0018.17.0014a5.4281,5.4281,0,0,1,.6852.04,1.738,1.738,0,0,1,.3344.082,1.6017,1.6017,0,0,1,.3164.1523,1.1212,1.1212,0,0,1,.2672.2329,1.072,1.072,0,0,1,.1851.33,1.303,1.303,0,0,1,.0687.4418,1.2328,1.2328,0,0,1-.0493.3419.9411.9411,0,0,1-.1672.3224,1.1367,1.1367,0,0,1-.3179.27,1.5848,1.5848,0,0,1-.4991.1918Zm-2.1436-2.1973h.2627q.1434,0,.2926-.003t.2881-.0194a1.4922,1.4922,0,0,0,.2612-.0537.7015.7015,0,0,0,.2135-.1045.4753.4753,0,0,0,.1433-.17.5607.5607,0,0,0,.0522-.2552.553.553,0,0,0-.0567-.27.7082.7082,0,0,0-.5586-.3172,5.2459,5.2459,0,0,0-.6356-.0246h-.2627Z" transform="translate(-0.7631 -0.75)" />
    <path class="cls-1" d="M337.2208,68.1112a4.0162,4.0162,0,1,1,4.0161-4.0161A4.0208,4.0208,0,0,1,337.2208,68.1112Zm0-7.3011a3.285,3.285,0,1,0,3.2849,3.285A3.2887,3.2887,0,0,0,337.2208,60.81Z" transform="translate(-0.7631 -0.75)" />
</svg>