<svg id="Layer_1" data-name="Layer 1" xmlns="http://www.w3.org/2000/svg" width="281.5" height="202" viewBox="0 0 281.5 202">
    <defs>
        <style>
            .cls-1 {
                fill: #303030;
            }

            .cls-2 {
                fill: gray;
            }

            .cls-3 {
                fill: #ccc;
            }

            .cls-4 {
                fill: #ff5f17;
            }

            .cls-5 {
                fill: #666;
            }

            .cls-6 {
                fill: #333;
            }

            .cls-7 {
                fill: #fff;
            }
        </style>
    </defs>
    <title>Store</title>
    <polygon class="cls-1" points="281.179 146.898 89.95 201 0.321 132.563 178.275 84.756 281.179 146.898" />
    <polygon class="cls-2" points="231.411 34.671 98.885 63.629 42.321 25.132 168.484 1 231.411 34.671" />
    <polygon class="cls-3" points="99.144 172.546 231.533 137.704 231.533 67.832 99.144 100.929 99.144 172.546" />
    <polygon class="cls-1" points="125.046 166.162 212.611 143.116 212.611 85.559 125.046 107.45 125.046 166.162" />
    <polygon class="cls-4" points="98.909 97.252 234.976 63.282 234.976 37.54 98.909 67.832 98.909 97.252" />
    <polygon class="cls-1" points="38.25 26.01 38.25 53 38.25 55.43 38.25 128.979 99.144 172.546 99.144 97.252 99.144 94.822 99.144 67.832 38.25 26.01" />
    <polygon class="cls-5" points="98.909 67.832 98.909 97.252 99.095 97.205 99.095 67.791 98.909 67.832" />
    <polygon class="cls-6" points="108.727 65.646 108.727 94.801 109.163 94.692 109.163 65.549 108.727 65.646" />
    <polygon class="cls-6" points="118.796 63.405 118.796 92.287 119.232 92.178 119.232 63.308 118.796 63.405" />
    <polygon class="cls-6" points="128.864 61.163 128.864 89.773 129.301 89.664 129.301 61.066 128.864 61.163" />
    <polygon class="cls-6" points="138.933 58.922 138.933 87.26 139.369 87.151 139.369 58.824 138.933 58.922" />
    <polygon class="cls-6" points="148.094 56.882 148.094 84.973 148.53 84.864 148.53 56.785 148.094 56.882" />
    <polygon class="cls-6" points="157.255 54.843 157.255 82.686 157.691 82.577 157.691 54.746 157.255 54.843" />
    <polygon class="cls-6" points="166.416 52.803 166.416 80.398 166.852 80.289 166.852 52.706 166.416 52.803" />
    <polygon class="cls-6" points="175.577 50.764 175.577 78.111 176.013 78.002 176.013 50.666 175.577 50.764" />
    <polygon class="cls-6" points="183.831 48.926 183.831 76.051 184.267 75.942 184.267 48.829 183.831 48.926" />
    <polygon class="cls-6" points="192.084 47.089 192.084 73.99 192.52 73.881 192.52 46.992 192.084 47.089" />
    <polygon class="cls-6" points="200.338 45.251 200.338 71.93 200.774 71.821 200.774 45.154 200.338 45.251" />
    <polygon class="cls-6" points="207.683 43.616 207.683 70.096 208.119 69.987 208.119 43.519 207.683 43.616" />
    <polygon class="cls-6" points="215.029 41.98 215.029 68.262 215.466 68.153 215.466 41.883 215.029 41.98" />
    <polygon class="cls-6" points="222.375 40.345 222.375 66.428 222.811 66.319 222.811 40.248 222.375 40.345" />
    <polygon class="cls-6" points="228.813 38.912 228.813 64.821 229.249 64.712 229.249 38.815 228.813 38.912" />
    <path class="cls-2" d="M168.6689,129.894h-.8725v-5.2348h.8725Zm37.8547-42.8261v50.98l-33.2028,10.0839v-45l-2.4708,1.0245V151.221l38.291-11.159V86.4136Z" />
    <path class="cls-2" d="M78.2358,99.011c-.4126-.8961-1.0845-1.3867-1.5014-1.0972L54.8216,112.4749c-.4123.2608-.4124,1.2017,0,2.1017a2.7367,2.7367,0,0,0,.7466,1.0156.6505.6505,0,0,0,.7469.1433l21.9128-14.5747c.4168-.29.42-1.2534.0082-2.15" />
    <path class="cls-2" d="M55.6139,105.15,74.3888,92.6048c.4166-.29.42-1.2486.0069-2.1415s-1.0858-1.3808-1.5023-1.0911L54.1182,101.9051c-.4131.2642-.4131,1.2044,0,2.1008a2.704,2.704,0,0,0,.7476,1.0076.6509.6509,0,0,0,.7479.1366" />
    <path class="cls-2" d="M54.8677,94.8461a.65.65,0,0,0,.7493.1292l11.8694-7.92c.4163-.2849.4181-1.2378.0045-2.1277s-1.0865-1.3794-1.5024-1.0946L62.66,86.0924l-2.9764-6.3859c-.4144-.8862-1.0873-1.3785-1.5024-1.1s-.416,1.2218-.0015,2.109l2.9764,6.3871-2.437,1.6244L56.0848,83.07c-.4144-.8875-1.0864-1.3849-1.5011-1.1112s-.4144,1.2128,0,2.1009l2.634,5.659-3.0988,2.027c-.4136.2684-.4136,1.2083,0,2.1a2.6644,2.6644,0,0,0,.7491,1" />
    <path class="cls-2" d="M65.6411,78.6783a2.5576,2.5576,0,0,0,.751.9842.6423.6423,0,0,0,.7525.1036l6.5913-4.603c.418-.2953.4206-1.2544.0066-2.14S72.6538,71.66,72.2363,71.955L65.645,76.5538c-.4166.2865-.4181,1.2375-.0039,2.1245" />
    <path class="cls-2" d="M78.4274,109.8987c-.4117-.9007-1.0826-1.3981-1.4986-1.1119l-18.881,12.4648c-.4126.2605-.4128,1.2046-.0014,2.1084a2.7521,2.7521,0,0,0,.7453,1.02.6493.6493,0,0,0,.7465.1461l18.881-12.4771c.4162-.2862.42-1.2493.0082-2.15" />
    <path class="cls-2" d="M78.2823,121.3064c-.4109-.9055-1.0807-1.41-1.4959-1.1281l-3.3409,2.2467a.4317.4317,0,0,0-.1965.0677.5488.5488,0,0,0-.1526.165l-3.5058,2.3208a.4226.4226,0,0,0-.1965.0653.534.534,0,0,0-.1522.163l-3.6665,2.3861c-.4131.2657-.4148,1.2166-.004,2.1235a2.735,2.735,0,0,0,.745,1.0216.6426.6426,0,0,0,.7466.14l3.0919-2.0109,2.6041,5.7646a2.7132,2.7132,0,0,0,.7443,1.0219.6387.6387,0,0,0,.7474.1338c.4139-.2729.417-1.2321.0068-2.142l-2.604-5.7628,2.355-1.56,2.7233,6.0247a2.6889,2.6889,0,0,0,.7451,1.018.6366.6366,0,0,0,.748.1273c.4147-.2779.4185-1.2407.0082-2.15L75.51,125.3193l2.7646-1.8633c.4151-.2816.4189-1.2443.0082-2.15" />
    <path class="cls-2" d="M63.7481,73.2557a2.5512,2.5512,0,0,0,.7518.9815.6434.6434,0,0,0,.7529.1017c.4167-.2876.4185-1.2384.0038-2.1233l-3.4279-7.2935c-.415-.881-1.09-1.3622-1.5065-1.0754s-.4172,1.2316-.0021,2.1126Z" />
    <path class="cls-2" d="M66.5484,71.411a2.5267,2.5267,0,0,0,.752.98.6411.6411,0,0,0,.7535.0969c.4173-.2907.4195-1.2444.0051-2.1287L67.3556,68.86c-.4149-.8834-1.0892-1.3633-1.5062-1.0723s-.419,1.2409-.0043,2.1244Z" />
    <path class="cls-7" d="M156.71,66.7505a4.0838,4.0838,0,0,0-3.6716-.7955,5.4842,5.4842,0,0,0-2.7554,1.6812l.0024-.649-3.0385.6926-.0346,9.1127-3.0356-.4159-.0126-13.6574-4.7856,1.0825L124.7946,84.74l3.2507.132,4.7657-6.8951L147.2,79.9487v.019l3.039-.7065.023-6.1361a5.7111,5.7111,0,0,1,.5582-2.9509,3.1149,3.1149,0,0,1,1.9854-1.305,1.6361,1.6361,0,0,1,1.5757.3007q.5841.5541.5767,2.6188l-.0235,6.3819,3.0389-.7054.0241-6.5768C158.0053,68.7855,157.632,67.5507,156.71,66.7505Zm-15.5148,9.2159-6.3846-.886,1.66-2.4173,4.7842-6.9758-.0494,7.7Z" />
    <path class="cls-7" d="M168.4176,62.8631l-.0029.7789a4.33,4.33,0,0,0-3.1774-.46,7.7474,7.7474,0,0,0-4.1529,2.5848,7.9742,7.9742,0,0,0-2.0912,5.3371,5.1678,5.1678,0,0,0,1.5882,4.021,4.7949,4.7949,0,0,0,4.6091,1.07,6.6058,6.6058,0,0,0,3.1864-1.9189l-.0026.7786,3.0387-.7033.0428-12.1776Zm-.6824,8.65a3.9,3.9,0,0,1-2.4825,1.8206,2.4937,2.4937,0,0,1-2.24-.4373,3.0188,3.0188,0,0,1-.9424-2.4989,4.6577,4.6577,0,0,1,.713-2.57,3.9108,3.9108,0,0,1,2.4431-1.7945,2.4752,2.4752,0,0,1,2.2788.42,3.0529,3.0529,0,0,1,.93,2.4711A4.8227,4.8227,0,0,1,167.7352,71.5129Z" />
    <path class="cls-7" d="M183.1862,60.73a4.1121,4.1121,0,0,0-3.6718-.7842,5.4975,5.4975,0,0,0-2.7548,1.6672l.002-.6427-3.0382.6888-.0425,12.1673,3.0387-.7026.021-6.0758a5.615,5.615,0,0,1,.5575-2.9225,3.1182,3.1182,0,0,1,1.9849-1.294,1.6478,1.6478,0,0,1,1.5757.2963q.5842.548.5775,2.5924l-.0216,6.319,3.0386-.7014.0219-6.512C184.4823,62.7437,184.1086,61.5214,183.1862,60.73Z" />
    <path class="cls-7" d="M195.1006,56.8227l-.0023.7712a4.3672,4.3672,0,0,0-3.1779-.4522,7.765,7.765,0,0,0-4.1518,2.563,7.8561,7.8561,0,0,0-2.0893,5.2862,5.0882,5.0882,0,0,0,1.5894,3.9794,4.8283,4.8283,0,0,0,4.6094,1.0545,6.6268,6.6268,0,0,0,3.186-1.9029l-.0027.7708,3.0385-.6994.0387-12.0562Zm-.6792,8.5644a3.9011,3.9011,0,0,1-2.4817,1.8048,2.5125,2.5125,0,0,1-2.24-.4307,2.97,2.97,0,0,1-.9429-2.4732,4.5784,4.5784,0,0,1,.7121-2.5452,3.91,3.91,0,0,1,2.4424-1.7789,2.4935,2.4935,0,0,1,2.2788.4135,3.0066,3.0066,0,0,1,.93,2.4456A4.7423,4.7423,0,0,1,194.4214,65.3871Z" />
    <path class="cls-7" d="M206.5059,56.3106l-1.5866-.2587c-1.01-.1594-1.622-.5-1.8541-1.02l-3.0742.693c.2032,1.7708,1.4189,2.8494,3.6794,3.2176l1.5244.2463a5.6257,5.6257,0,0,1,1.71.4929,1.3542,1.3542,0,0,1,.7031,1.262,3.1809,3.1809,0,0,1-.7256,1.9651,3.3186,3.3186,0,0,1-1.9259,1.2461c-1.39.3182-2.2934-.3068-2.6979-1.8912-.0366-.13-.0856-.3208-.1469-.5844L199.18,63.13q.1837.7154.22.8961a4.0751,4.0751,0,0,0,1.7282,2.4931,4.679,4.679,0,0,0,3.7561.5105,7.3576,7.3576,0,0,0,3.8519-2.2558,6.5554,6.5554,0,0,0,1.9237-4.55A3.4116,3.4116,0,0,0,209.59,57.538,6.0316,6.0316,0,0,0,206.5059,56.3106Z" />
    <path class="cls-7" d="M200.4136,52.9312l4.8718-1.0928v.002c.0113-.0026.02-.0078.0316-.01a2.0869,2.0869,0,0,1,1.8094.35,6.3391,6.3391,0,0,1,.9248,1.0735l-.0009.0008.0011,0,.0016.002.0081-.0067,2.7345-1.342a6.2213,6.2213,0,0,0-.3315-.7081l.0017-.0013-.0091-.0145c-.005-.0095-.01-.0221-.0147-.0315l-.0034.0029a5.5647,5.5647,0,0,0-.368-.5887l-.01-.0125a4.82,4.82,0,0,0-.3124-.3772c-.04-.0458-.0791-.0888-.1174-.13a4.1306,4.1306,0,0,0-4.2678-1.0739c-.0234.0053-.0452.015-.0688.0206v-.0052l-58.0263,13.03-.011,2.9134Z" />
</svg>